<svg xmlns="http://www.w3.org/2000/svg" width="600" height="400" viewBox="0 0 600 400">
  <defs>
    <linearGradient id="bg" x1="0" y1="0" x2="1" y2="1">
      <stop offset="0%" stop-color="#667eea"/>
      <stop offset="100%" stop-color="#764ba2"/>
    </linearGradient>
  </defs>
  <rect width="600" height="400" rx="12" fill="url(#bg)" opacity="0.08"/>
  <rect x="40" y="30" width="520" height="60" rx="8" fill="#fff" opacity="0.5"/>
  <rect x="60" y="48" width="120" height="24" rx="4" fill="#667eea" opacity="0.3"/>
  <rect x="440" y="48" width="100" height="24" rx="12" fill="#667eea" opacity="0.2"/>
  <rect x="40" y="110" width="520" height="40" rx="8" fill="#667eea" opacity="0.12"/>
  <rect x="40" y="170" width="520" height="80" rx="8" fill="#fff" opacity="0.5"/>
  <rect x="60" y="190" width="200" height="14" rx="4" fill="#667eea" opacity="0.25"/>
  <rect x="60" y="214" width="160" height="12" rx="4" fill="#667eea" opacity="0.15"/>
  <rect x="340" y="190" width="200" height="14" rx="4" fill="#667eea" opacity="0.25"/>
  <rect x="340" y="214" width="160" height="12" rx="4" fill="#667eea" opacity="0.15"/>
  <rect x="40" y="270" width="520" height="60" rx="8" fill="#fff" opacity="0.5"/>
  <rect x="60" y="290" width="200" height="14" rx="4" fill="#667eea" opacity="0.25"/>
  <rect x="340" y="290" width="160" height="14" rx="4" fill="#667eea" opacity="0.25"/>
  <rect x="460" y="286" width="80" height="28" rx="6" fill="#667eea" opacity="0.2"/>
  <text x="300" y="364" text-anchor="middle" font-family="sans-serif" font-size="14" fill="#667eea" opacity="0.4">Dashboard Preview</text>
</svg>
